<?xml version="1.0" encoding="UTF-8"?>
<svg id="Layer_1" data-name="Layer 1" xmlns="http://www.w3.org/2000/svg" viewBox="0 0 340.09 273.99">
  <defs>
    <style>
      .cls-1 {
        fill: #fff;
      }
    </style>
  </defs>
  <path class="cls-1" d="M313.29,97.76s7.92-32.08-27.25-41.33c0,0-16.72-5.28-36.06-3.52,0,0-3.52-56.27-42.21-52.75,0,0-30.85,11.42-37.85,21.09,0,0-29.84-43.08-69.41,0,0,0-10.55,11.44-10.55,34.31l3.51,99.37s4.41,14.94,13.19,11.41c0,0,4.41,2.65,3.52-17.58,0,0-1.75-105.52,4.4-105.52,0,0,21.98-23.74,34.29.88v109.02s-23.74,57.17-58.91,9.68c0,0-3.53-17.59-20.24-12.31,0,0-11.42,9.67,2.65,22.86l34.28,33.41s11.44,12.31,30.79-2.64c0,0,20.77-21.15,37.81,12.31l-.88,17.59s1.75,9.66-10.55-1.77c0,0-18.47-19.34-94.1-14.94,0,0-3.5-21.99-43.97-50.13,0,0-5.28-27.26,20.24-48.35,0,0,49.24-29.02,30.76-56.28,0,0-24.79,31.49-46.6,32.53,0,0-26.38,6.64-26.38,41.57,0,0-5.17,20.06-3.42,41.15,0,0,55.3,39.91,64.96,67.66,0,0,.03,4.39,19.35,0,0,0,57.06-25.51,85.24,23.73,0,0,9.72,14.07,17.64-6.14,0,0,12.31-29.92,7.02-36.06,0,0,17.6-3.52,23.74-12.31,0,0,17.59,17.59,38.7,8.79,0,0,16.71,22.86,41.33-4.4,0,0,46.6-56.27,41.33-102,0,0,.41-14.06-26.39-19.34ZM206.89,189.21s-7.91,23.74-14.95,13.19c0,0-29.09-15.82-22.01-32.54l5.32-121.34s35.16-24.62,43.97-12.31c0,0,16.71,16.71,7.04,58.91,0,0-20.91,61.02-19.35,94.1ZM255.26,192.72c-24.61,18.47-26.01-7.02-26.01-7.02-4.02-16.72,31.29-103.77,31.29-103.77,19.34-10.55,29.89,5.27,29.89,5.27,4.39,17.59-35.18,105.52-35.18,105.52ZM271.08,205.11s-2.4-1.38,0-5.68c0,0,35.16-62.1,36.93-76.16,0,0,14.95-10.55,14.95,7.02,0,0-36.05,87.19-51.88,74.82Z"/>
</svg>